<svg width="24" height="14" viewBox="0 0 24 14" fill="none" xmlns="http://www.w3.org/2000/svg">
<mask id="mask0_2969_953" style="mask-type:luminance" maskUnits="userSpaceOnUse" x="0" y="0" width="24" height="14">
<path d="M0 0H23.1713V14H0V0Z" fill="white"/>
</mask>
<g mask="url(#mask0_2969_953)">
<path fill-rule="evenodd" clip-rule="evenodd" d="M11.5856 0C8.49614 0 6.5652 1.55556 5.79282 4.66667C6.95139 3.11111 8.30305 2.52778 9.8478 2.91667C10.7292 3.13833 11.3591 3.78259 12.0564 4.49512C13.1922 5.65617 14.5069 7 17.3785 7C20.468 7 22.3989 5.44444 23.1713 2.33333C22.0127 3.88889 20.6611 4.47222 19.1163 4.08333C18.235 3.86167 17.605 3.21741 16.9078 2.50488C15.7719 1.34383 14.4572 0 11.5856 0ZM5.79282 7C2.70332 7 0.772377 8.55556 0 11.6667C1.15856 10.1111 2.51022 9.52778 4.05498 9.91667C4.93634 10.1388 5.56626 10.7826 6.26354 11.4951C7.39937 12.6562 8.71412 14 11.5856 14C14.6752 14 16.6061 12.4444 17.3785 9.33333C16.2199 10.8889 14.8682 11.4722 13.3235 11.0833C12.4421 10.8617 11.8122 10.2174 11.1149 9.50488C9.9791 8.34383 8.66435 7 5.79282 7Z" fill="#607B96"/>
</g>
</svg>
